<svg width="1097" height="179" viewBox="0 0 1097 179" fill="none" xmlns="http://www.w3.org/2000/svg">
<path d="M740.314 166.174L744.53 146.211H750.358L746.142 166.174H740.314ZM748.352 166.174L752.568 146.211H757.528L762.828 156.781L765.06 146.211H770.888L766.672 166.174H761.681L756.412 155.634L754.18 166.174H748.352ZM768.862 166.174L773.078 146.211H788.081L787.182 150.55H778.006L777.263 153.991H785.26L784.33 158.393H776.333L774.69 166.174H768.862ZM784.831 166.174L789.047 146.211H794.875L790.659 166.174H784.831ZM792.869 166.174L797.085 146.211H802.044L807.345 156.781L809.577 146.211H815.405L811.189 166.174H806.198L800.928 155.634L798.697 166.174H792.869ZM813.379 166.174L817.595 146.211H823.422L819.206 166.174H813.379ZM825.787 166.174L829.104 150.55H823.493L824.392 146.211H841.442L840.543 150.55H834.932L831.615 166.174H825.787ZM838.173 166.174L842.389 146.211H857.516L856.586 150.674H847.286L846.573 153.929H854.726L853.765 158.455H845.612L844.93 161.71H854.23L853.3 166.174H838.173Z" fill="white"/>
<path d="M860.303 166.174L864.519 146.211H870.346L866.131 166.174H860.303ZM868.341 166.174L872.556 146.211H877.516L882.817 156.781L885.049 146.211H890.877L886.661 166.174H881.67L876.4 155.634L874.168 166.174H868.341ZM888.851 166.174L893.066 146.211H898.026L903.327 156.781L905.559 146.211H911.387L907.171 166.174H902.18L896.91 155.634L894.678 166.174H888.851ZM918.815 166.484C916.252 166.484 914.217 165.926 912.708 164.81C911.2 163.673 910.445 161.875 910.445 159.416C910.445 158.486 910.569 157.432 910.817 156.254C911.355 153.774 912.15 151.78 913.204 150.271C914.258 148.742 915.612 147.636 917.265 146.954C918.939 146.252 920.923 145.901 923.217 145.901C925.862 145.901 927.918 146.479 929.386 147.636C930.853 148.773 931.586 150.561 931.586 152.999C931.586 153.95 931.462 155.035 931.214 156.254C930.45 159.85 929.055 162.454 927.03 164.066C925.025 165.678 922.287 166.484 918.815 166.484ZM919.869 161.524C921.357 161.524 922.525 161.11 923.372 160.284C924.24 159.437 924.87 158.093 925.263 156.254C925.366 155.758 925.438 155.303 925.48 154.89C925.542 154.456 925.573 154.074 925.573 153.743C925.573 152.71 925.304 151.976 924.767 151.542C924.25 151.088 923.382 150.86 922.163 150.86C920.675 150.86 919.507 151.274 918.66 152.1C917.833 152.906 917.203 154.291 916.769 156.254C916.666 156.75 916.583 157.205 916.521 157.618C916.459 158.031 916.428 158.414 916.428 158.765C916.428 159.757 916.697 160.47 917.234 160.904C917.792 161.317 918.67 161.524 919.869 161.524ZM936.483 166.174L933.042 146.211H938.932L940.792 159.416L948.232 146.211H954.524L942.652 166.174H936.483ZM947.035 166.174L958.908 146.211H965.076L968.517 166.174H962.441L961.728 161.927H955.653L953.111 166.174H947.035ZM957.296 157.742H961.759L960.767 151.883L957.296 157.742ZM971.84 166.174L975.157 150.55H969.546L970.445 146.211H987.495L986.596 150.55H980.985L977.668 166.174H971.84ZM984.226 166.174L988.441 146.211H994.269L990.053 166.174H984.226ZM1001.72 166.484C999.155 166.484 997.12 165.926 995.611 164.81C994.103 163.673 993.348 161.875 993.348 159.416C993.348 158.486 993.472 157.432 993.72 156.254C994.258 153.774 995.053 151.78 996.107 150.271C997.161 148.742 998.515 147.636 1000.17 146.954C1001.84 146.252 1003.83 145.901 1006.12 145.901C1008.77 145.901 1010.82 146.479 1012.29 147.636C1013.76 148.773 1014.49 150.561 1014.49 152.999C1014.49 153.95 1014.37 155.035 1014.12 156.254C1013.35 159.85 1011.96 162.454 1009.93 164.066C1007.93 165.678 1005.19 166.484 1001.72 166.484ZM1002.77 161.524C1004.26 161.524 1005.43 161.11 1006.27 160.284C1007.14 159.437 1007.77 158.093 1008.17 156.254C1008.27 155.758 1008.34 155.303 1008.38 154.89C1008.44 154.456 1008.48 154.074 1008.48 153.743C1008.48 152.71 1008.21 151.976 1007.67 151.542C1007.15 151.088 1006.29 150.86 1005.07 150.86C1003.58 150.86 1002.41 151.274 1001.56 152.1C1000.74 152.906 1000.11 154.291 999.672 156.254C999.569 156.75 999.486 157.205 999.424 157.618C999.362 158.031 999.331 158.414 999.331 158.765C999.331 159.757 999.6 160.47 1000.14 160.904C1000.7 161.317 1001.57 161.524 1002.77 161.524ZM1013.59 166.174L1017.81 146.211H1022.77L1028.07 156.781L1030.3 146.211H1036.13L1031.91 166.174H1026.92L1021.65 155.634L1019.42 166.174H1013.59Z" fill="#A537FF"/>
<path d="M410.186 78.1827H457.775L453.528 99.854H405.939L410.186 78.1827ZM404.182 118.597H457.921L453.235 141H371.09L391.589 38.5009H471.832L467.292 60.9043H415.604L404.182 118.597ZM466.542 141L487.042 38.5009H510.909L552.348 107.029L542.391 106.736L556.009 38.5009H584.416L563.916 141H540.049L498.756 72.4721L508.567 72.7649L494.949 141H466.542ZM619.949 83.4541H667.245L662.706 105.858H615.556L619.949 83.4541ZM610.577 141H581.585L602.085 38.5009H682.327L677.788 60.9043H626.538L610.577 141ZM672.604 141L693.104 38.5009H722.097L701.597 141H672.604ZM719.295 141L739.795 38.5009H763.663L805.102 107.029L795.145 106.736L808.762 38.5009H837.169L816.67 141H792.802L751.509 72.4721L761.32 72.7649L747.702 141H719.295ZM834.338 141L854.838 38.5009H883.831L863.331 141H834.338ZM902.7 141L918.661 61.49H887.179L891.865 38.5009H983.675L978.989 61.49H947.654L931.693 141H902.7ZM1007.71 141L1016.35 97.5112L1019.57 115.229L988.97 38.5009H1018.11L1040.07 94.1433L1022.21 94.2898L1067.02 38.5009H1096.45L1035.53 115.229L1045.34 97.5112L1036.71 141H1007.71Z" fill="white"/>
<mask id="mask0_4_142" style="mask-type:alpha" maskUnits="userSpaceOnUse" x="371" y="38" width="726" height="103">
<path d="M410.186 78.1826H457.775L453.528 99.8539H405.939L410.186 78.1826ZM404.182 118.597H457.921L453.235 141H371.09L391.589 38.5007H471.832L467.292 60.9042H415.604L404.182 118.597ZM466.542 141L487.042 38.5007H510.909L552.348 107.029L542.391 106.736L556.009 38.5007H584.416L563.916 141H540.049L498.756 72.4719L508.567 72.7648L494.949 141H466.542ZM619.949 83.454H667.245L662.706 105.857H615.556L619.949 83.454ZM610.577 141H581.585L602.085 38.5007H682.327L677.788 60.9042H626.538L610.577 141ZM672.604 141L693.104 38.5007H722.097L701.597 141H672.604ZM719.295 141L739.795 38.5007H763.663L805.102 107.029L795.145 106.736L808.762 38.5007H837.169L816.67 141H792.802L751.509 72.4719L761.32 72.7648L747.702 141H719.295ZM834.338 141L854.838 38.5007H883.831L863.331 141H834.338ZM902.7 141L918.661 61.4899H887.179L891.865 38.5007H983.675L978.989 61.4899H947.654L931.693 141H902.7ZM1007.71 141L1016.35 97.511L1019.57 115.229L988.97 38.5007H1018.11L1040.07 94.1432L1022.21 94.2896L1067.02 38.5007H1096.45L1035.53 115.229L1045.34 97.511L1036.71 141H1007.71Z" fill="black"/>
</mask>
<g mask="url(#mask0_4_142)">
<g filter="url(#filter0_d_4_142)">
<g filter="url(#filter1_d_4_142)">
<g filter="url(#filter2_d_4_142)">
<path fill-rule="evenodd" clip-rule="evenodd" d="M1032.45 153.516C1034.35 153.516 1052.18 134.022 1052.18 108.757C1052.18 93.1426 1046.79 77.8448 1036.88 65.3959C1032.95 60.3848 1023.8 52.4725 1017.7 48.7798C997.291 36.2252 973.54 31.8467 943.338 34.9061C934.013 35.8557 917.71 40.1285 904.808 44.9814C886.98 51.6278 880.353 55.3205 844.932 78.3725C841.934 80.3183 838.786 82.3683 835.998 84.1846C832.511 86.4549 829.586 88.3599 828.218 89.2392C825.696 90.8744 821.474 93.5119 818.717 95.1999C815.961 96.888 810.976 100.053 807.575 102.216C804.173 104.378 800.655 106.541 799.775 107.069C798.837 107.544 795.377 109.495 792.034 111.394C752.918 133.497 726.703 143.308 703.421 144.469C691.282 145.049 675.859 141.884 668.117 137.189C666.71 136.345 665.361 135.712 665.244 135.87C664.775 136.292 665.406 137.533 667.98 139.524C670.006 141.091 677.176 149.909 696.094 152.132C702.779 153.292 708.086 153.152 719.834 152.533C727.692 151.108 725.345 151.609 733.81 150.018C734.167 149.9 739.687 148.767 740.073 148.639L740.089 148.634L750.5 145.791C752.522 145.12 760.462 142.756 761.641 142.403C770.085 139.712 783.301 132.997 797.492 125.823C806.29 121.392 827.467 108.388 839.137 102.216C889.572 75.6821 931.449 56.6651 955.2 55.2411C974.67 54.1334 997.809 59.6983 1009.89 67.0837C1013.88 69.4951 1024.43 76.412 1031.89 86.7971L1036.88 96.8177L1039.83 107.312V114.126V123.491L1038.77 133.038L1036.88 143.678L1032.45 153.516Z" fill="url(#paint0_linear_4_142)"/>
<path d="M1032.15 153.715L1032.27 153.435L1036.68 143.621L1038.58 133.003L1039.63 123.479V107.343L1036.69 96.8895L1031.72 86.9012C1024.29 76.5561 1013.77 69.6602 1009.79 67.2538L1009.79 67.2528C997.745 59.8921 974.649 54.3335 955.212 55.4393L954.089 55.5184C942.345 56.4707 926.375 61.505 907.252 69.495C887.517 77.7406 864.446 89.1257 839.23 102.391C833.4 105.475 825.192 110.266 817.338 114.844C809.488 119.418 801.987 123.781 797.582 126L792.315 128.661C780.165 134.788 769.107 140.232 761.701 142.592L761.697 142.593C760.514 142.947 752.581 145.309 750.562 145.979L750.552 145.983L740.153 148.822L740.136 148.827L739.753 148.924C739.56 148.968 739.309 149.024 739.024 149.086C738.446 149.212 737.709 149.369 736.972 149.526C736.236 149.683 735.501 149.84 734.927 149.965C734.345 150.091 733.948 150.182 733.872 150.207L733.859 150.211L733.846 150.214C725.383 151.804 727.72 151.304 719.869 152.727L719.856 152.73H719.844C708.105 153.349 702.777 153.492 696.072 152.329C686.584 151.214 680.034 148.445 675.599 145.752C671.182 143.069 668.832 140.433 667.859 139.681C666.566 138.68 665.745 137.858 665.307 137.222C665.089 136.904 664.956 136.619 664.916 136.371C664.874 136.116 664.931 135.884 665.111 135.723L665.112 135.724C665.153 135.684 665.2 135.664 665.235 135.656C665.279 135.646 665.322 135.647 665.358 135.649C665.431 135.655 665.515 135.674 665.602 135.701C665.78 135.755 666.013 135.85 666.28 135.974C666.682 136.159 667.174 136.416 667.693 136.712L668.219 137.019C672.063 139.35 677.83 141.31 684.16 142.613C690.487 143.916 697.361 144.561 703.412 144.271C725.92 143.149 751.193 133.924 788.307 113.258L791.936 111.222C795.261 109.333 798.711 107.387 799.673 106.898L800.783 106.223C802.302 105.291 804.918 103.67 807.469 102.049C810.869 99.8863 815.856 96.7203 818.614 95.0311C821.369 93.3437 825.59 90.7071 828.11 89.0731L828.111 89.0721C829.479 88.1932 832.403 86.2889 835.889 84.0184C838.678 82.2022 841.826 80.1519 844.824 78.2059C880.245 55.1536 886.889 51.4513 904.739 44.7968L904.738 44.7958C917.649 39.9394 933.97 35.6608 943.318 34.7089C973.551 31.6464 997.349 36.0281 1017.8 48.6112V48.6122C1023.92 52.3161 1033.09 60.2416 1037.03 65.2733V65.2743C1046.97 77.7574 1052.38 93.0975 1052.38 108.757C1052.38 121.435 1047.91 132.659 1043.2 140.711C1040.85 144.737 1038.43 147.974 1036.49 150.206C1035.51 151.322 1034.65 152.189 1033.98 152.779C1033.64 153.074 1033.34 153.303 1033.09 153.459C1032.97 153.537 1032.86 153.599 1032.75 153.642C1032.65 153.685 1032.55 153.715 1032.45 153.715H1032.15Z" stroke="#9130E0" stroke-width="0.396744"/>
</g>
<g filter="url(#filter3_d_4_142)">
<path fill-rule="evenodd" clip-rule="evenodd" d="M1030.76 162.397C1032.66 162.397 1050.49 142.902 1050.49 117.637C1050.49 102.023 1045.1 86.7254 1035.19 74.2765C1031.26 69.2654 1022.11 61.3531 1016.01 57.6604C995.6 45.1058 971.849 40.7273 941.647 43.7867C932.322 44.7363 916.019 49.0091 903.117 53.862C885.289 60.5085 878.662 64.2011 843.241 87.2531C840.243 89.1989 837.096 91.2489 834.307 93.0652C830.821 95.3356 827.896 97.2405 826.527 98.1198C824.005 99.755 819.783 102.393 817.027 104.081C814.27 105.769 809.285 108.934 805.884 111.096C802.483 113.259 798.964 115.422 798.084 115.949C797.146 116.424 793.686 118.376 790.343 120.275C751.227 142.377 725.013 152.189 701.73 153.349C689.591 153.93 674.168 150.765 666.426 146.07C665.019 145.226 663.671 144.593 663.553 144.751C663.084 145.173 663.716 146.414 666.289 148.405C668.315 149.971 675.485 158.79 694.404 161.012C701.089 162.173 706.395 162.033 718.143 161.413C726.001 159.989 723.654 160.49 732.119 158.899C732.476 158.781 737.996 157.648 738.383 157.52L738.398 157.514L748.809 154.672C750.832 154.001 758.772 151.637 759.95 151.283C768.395 148.593 776.152 136.024 790.343 128.85C799.14 124.419 822.637 104.292 834.307 98.1198C884.742 71.5861 926.618 52.5692 950.37 51.1451C969.84 50.0374 996.118 68.5789 1008.2 75.9643C1012.19 78.3757 1022.74 85.2926 1030.2 95.6777L1035.19 105.698L1038.14 116.193V123.007V132.372L1037.08 141.918L1035.19 152.559L1030.76 162.397Z" fill="url(#paint1_linear_4_142)"/>
<path d="M1030.46 162.595L1030.58 162.316L1034.99 152.502L1036.89 141.883L1037.94 132.36V116.223L1035 105.77L1030.03 95.7819C1022.6 85.4367 1012.07 78.5408 1008.1 76.1344L1008.1 76.1334C1002.04 72.4344 992.469 65.9622 981.964 60.5465C971.455 55.1286 960.059 50.7928 950.381 51.3434L949.258 51.4225C937.514 52.3747 921.544 57.409 902.421 65.399C882.687 73.6446 859.615 85.0298 834.4 98.2955C828.582 101.372 819.806 107.935 811.368 114.297C807.152 117.474 803.023 120.6 799.399 123.208C795.777 125.813 792.648 127.911 790.433 129.027L789.775 129.366C783.023 132.907 777.746 137.655 773.125 141.894C770.744 144.079 768.532 146.134 766.388 147.808C764.244 149.483 762.154 150.789 760.01 151.472L760.006 151.473C758.824 151.828 750.89 154.19 748.871 154.86L748.862 154.864L738.462 157.703L738.446 157.708L738.062 157.804C737.869 157.849 737.618 157.904 737.333 157.966C736.755 158.093 736.018 158.25 735.282 158.407C734.545 158.564 733.81 158.721 733.237 158.845C732.655 158.972 732.257 159.062 732.181 159.088L732.168 159.091L732.156 159.094C723.692 160.685 726.029 160.185 718.178 161.608L718.165 161.611H718.154C706.414 162.23 701.086 162.372 694.381 161.21C684.893 160.095 678.343 157.325 673.909 154.632C669.491 151.95 667.141 149.314 666.168 148.561C664.875 147.561 664.055 146.739 663.617 146.102C663.398 145.785 663.265 145.5 663.225 145.252C663.184 144.996 663.241 144.765 663.42 144.603L663.421 144.604C663.462 144.565 663.509 144.545 663.544 144.537C663.588 144.527 663.631 144.527 663.667 144.53C663.74 144.535 663.824 144.555 663.911 144.582C664.089 144.636 664.322 144.731 664.589 144.854C664.991 145.04 665.483 145.297 666.002 145.592L666.529 145.9C670.372 148.231 676.139 150.19 682.469 151.494C688.797 152.797 695.671 153.441 701.721 153.152C724.229 152.03 749.503 142.805 786.617 122.138L790.245 120.102C793.571 118.213 797.02 116.267 797.982 115.779L799.092 115.103C800.611 114.172 803.228 112.551 805.778 110.929C809.178 108.767 814.165 105.601 816.923 103.912C819.679 102.224 823.899 99.5877 826.419 97.9537L826.42 97.9528C827.788 97.0738 830.712 95.1695 834.199 92.899C836.987 91.0828 840.135 89.0325 843.133 87.0865C878.555 64.0342 885.198 60.332 903.048 53.6774L903.047 53.6764C915.958 48.8201 932.28 44.5414 941.627 43.5895C971.86 40.527 995.658 44.9088 1016.11 57.4918V57.4928C1022.23 61.1968 1031.4 69.1222 1035.34 74.1539V74.1549C1045.28 86.638 1050.69 101.978 1050.69 117.637C1050.69 130.315 1046.22 141.54 1041.51 149.591C1039.16 153.618 1036.74 156.855 1034.8 159.087C1033.82 160.202 1032.96 161.07 1032.29 161.66C1031.95 161.954 1031.65 162.183 1031.4 162.339C1031.28 162.418 1031.17 162.48 1031.06 162.523C1030.96 162.565 1030.86 162.595 1030.76 162.595H1030.46Z" stroke="#9130E0" stroke-width="0.396744"/>
</g>
<g filter="url(#filter4_d_4_142)">
<path fill-rule="evenodd" clip-rule="evenodd" d="M1033.28 157.233C1035.17 157.233 1053.01 137.739 1053.01 112.474C1053.01 96.8595 1047.61 81.5617 1037.7 69.1128C1033.77 64.1017 1024.62 56.1894 1018.52 52.4967C998.114 39.9421 974.363 35.5636 944.161 38.623C934.837 39.5726 918.533 43.8454 905.632 48.6983C887.804 55.3448 881.176 59.0375 845.755 82.0894C842.758 84.0352 839.61 86.0853 836.821 87.9015C833.335 90.1719 830.41 92.0768 829.041 92.9561C826.519 94.5913 822.297 97.2288 819.541 98.9168C816.785 100.605 811.799 103.77 808.398 105.933C804.997 108.095 801.478 110.258 800.598 110.786C799.66 111.26 796.2 113.212 792.857 115.111C753.741 137.214 727.527 147.025 704.245 148.186C692.105 148.766 676.682 145.601 668.94 140.906C667.533 140.062 666.185 139.429 666.067 139.587C665.598 140.009 666.23 141.25 668.804 143.241C670.829 144.808 677.999 153.626 696.918 155.849C703.603 157.009 708.909 156.869 720.657 156.25C728.515 154.825 726.168 155.326 734.633 153.735C734.991 153.617 740.51 152.484 740.897 152.356L740.912 152.351L751.324 149.508C753.346 148.837 761.286 146.473 762.464 146.12C770.909 143.429 784.124 136.714 798.316 129.54C807.113 125.109 828.29 112.104 839.961 105.933C890.396 79.399 932.272 60.3821 956.024 58.958C975.494 57.8503 998.632 63.4152 1010.71 70.8006C1014.7 73.212 1025.26 80.1289 1032.71 90.514L1037.7 100.535L1040.65 111.029V117.843V127.208L1039.6 136.755L1037.7 147.395L1033.28 157.233Z" fill="url(#paint2_linear_4_142)"/>
</g>
</g>
</g>
</g>
<path fill-rule="evenodd" clip-rule="evenodd" d="M26.9444 52.8134C40.9553 38.9022 59.6033 31.0242 84.085 28.6807C87.4756 28.3317 97.0489 28.8303 102.883 29.6779C112.306 30.9743 122.428 33.6668 130.954 37.2069C139.481 40.6972 154.14 49.0738 169.397 59.0959C173.486 61.7884 177.175 64.1817 177.574 64.3811C177.973 64.5806 180.466 66.1263 183.059 67.7717C183.647 68.1447 184.18 68.4866 184.667 68.7986L184.762 68.8596L184.758 68.8666L185.126 69.0926C186.164 69.7575 186.974 70.2693 187.645 70.6395L196.456 76.0504C192.365 78.4859 188.07 81.0925 183.558 83.8768C176.029 88.5138 169.048 92.752 168.101 93.3005L167.611 93.584L167.609 93.5851C166.329 94.327 163.687 95.858 161.27 97.2395C143.769 107.361 130.406 111.899 114.4 113.195C104.079 114.043 93.1597 112.946 85.1819 110.353C83.8357 109.904 82.8884 109.455 82.9881 109.306C83.1377 109.206 85.3315 109.455 87.8744 109.904C98.6943 111.799 115.099 110.303 126.367 106.364C127.924 105.819 129.937 105.152 131.386 104.673L131.388 104.672C131.794 104.538 132.156 104.418 132.45 104.32C137.835 102.674 150.849 95.8933 160.372 89.8102L163.813 87.6163L162.616 86.5693C161.07 85.3227 141.974 75.9489 135.392 73.2065C118.24 66.0764 104.727 63.2842 90.8661 63.9324C67.0326 65.1291 50.1796 74.1539 44.3957 88.9626C44.2279 89.4073 44.0602 89.8112 43.8974 90.2032C43.0929 92.1408 42.4073 93.7921 42.4073 98.6855C42.4073 103.546 43.1553 105.29 43.9602 107.166L43.9603 107.166L43.9604 107.166C44.105 107.503 44.2514 107.844 44.3957 108.209C46.6394 113.993 51.9247 120.425 57.559 124.214C67.8303 131.195 83.3371 134.585 99.8909 133.538C120.085 132.192 138.433 124.513 181.314 99.4334C191.236 93.5997 203.701 86.4695 211.181 82.2812C223.247 75.5001 243.79 65.6277 250.97 63.0848C251.972 62.7506 253.919 62.0316 255.639 61.3966C255.972 61.2736 256.296 61.1538 256.604 61.0405C261.291 59.2455 270.914 56.6028 277.595 55.2566C284.177 53.9103 297.29 53.661 302.975 54.758C316.038 57.3009 325.312 61.3895 331.545 67.4725C334.487 70.2647 336.381 72.6581 335.982 73.0569C335.883 73.2065 334.736 72.6082 333.539 71.8104C326.958 67.3728 313.844 64.3811 303.523 64.9296C283.728 66.0265 261.44 75.3007 228.183 96.1924C225.341 97.9874 222.399 99.8323 221.601 100.281C220.854 100.78 217.862 102.824 214.97 104.868C212.078 106.913 207.84 109.904 205.496 111.5C203.153 113.095 199.563 115.588 197.419 117.134C196.257 117.964 193.774 119.761 190.815 121.904L190.805 121.912L190.786 121.925C188.419 123.639 185.75 125.571 183.209 127.405C153.093 149.195 147.458 152.685 132.301 158.967C121.331 163.555 107.47 167.593 99.5419 168.491C73.8635 171.383 53.6698 167.244 36.3182 155.377C31.1327 151.887 23.3544 144.408 20.0137 139.671C11.5872 127.904 7 113.444 7 98.6855C7 81.284 13.6814 65.9767 26.9444 52.8134Z" fill="url(#paint3_linear_4_142)"/>
<path fill-rule="evenodd" clip-rule="evenodd" d="M237.158 105.018C263.884 87.8163 284.825 78.1931 299.484 76.2984C304.171 75.7001 306.714 75.6502 306.714 76.1488C306.714 76.3981 303.872 77.3455 300.382 78.3427C293.202 80.387 290.858 81.3343 279.64 86.819C268.92 92.1043 250.421 102.924 250.371 103.971C250.371 104.619 255.806 106.813 263.784 109.356C291.556 118.281 313.645 116.785 329.401 104.968C336.681 99.4837 342.115 92.6528 348.398 80.9853L350.592 76.9964V79.29C350.592 83.8772 347.999 94.7968 345.257 101.428C337.279 121.123 321.822 133.539 300.531 137.428C294.448 138.525 283.23 138.525 276.05 137.378C262.081 135.149 242.946 128.885 229.594 122.203L229.596 122.198L219.297 116.965C226.193 112.228 232.241 108.185 237.158 105.018Z" fill="url(#paint4_linear_4_142)"/>
<g filter="url(#filter5_d_4_142)">
<path fill-rule="evenodd" clip-rule="evenodd" d="M23.7739 56.3636C22.1608 56.3636 7.00024 74.7906 7.00024 98.6717C7.00024 113.431 11.5875 127.89 20.0139 139.657C23.3546 144.394 31.1329 151.873 36.3185 155.363C53.6701 167.23 73.8637 171.369 99.542 168.477C107.47 167.58 121.331 163.541 132.301 158.954C147.458 152.671 153.093 149.181 183.208 127.392C185.757 125.552 188.433 123.615 190.805 121.898C193.769 119.752 196.255 117.951 197.419 117.12C199.563 115.575 203.153 113.081 205.496 111.486C207.84 109.89 212.079 106.899 214.97 104.854C217.862 102.81 220.854 100.766 221.602 100.267C222.4 99.8184 225.341 97.9736 228.183 96.1786C261.441 75.2869 283.729 66.0128 303.524 64.9158C313.845 64.3674 326.958 67.359 333.54 71.7966C334.736 72.5944 335.883 73.1927 335.983 73.0432C336.381 72.6443 335.844 71.4716 333.656 69.5897C331.934 68.1087 325.838 59.7735 309.753 57.6725C304.069 56.5755 299.558 56.7081 289.569 57.2936C282.888 58.6398 284.884 58.1666 277.687 59.6702C277.383 59.782 272.69 60.8528 272.361 60.9741L272.348 60.979L263.496 63.6655C261.777 64.3003 255.026 66.5347 254.024 66.8687C246.844 69.4116 235.608 75.7591 223.542 82.5402C216.063 86.7285 198.058 99.0207 188.135 104.854C145.255 129.935 109.65 147.91 89.4564 149.256C72.9025 150.303 53.2299 145.043 42.9586 138.062C39.5692 135.783 30.5936 129.245 24.2561 119.429L20.0139 109.957L17.5053 100.037V93.5964V84.7446L18.4008 75.7205L20.0139 65.6632L23.7739 56.3636Z" fill="url(#paint5_linear_4_142)"/>
</g>
<path d="M262.566 159.992L262.991 157.959C263.606 157.123 264.299 156.375 265.072 155.713C265.844 155.051 266.687 154.373 267.601 153.68C268.373 153.097 268.996 152.616 269.469 152.238C269.957 151.859 270.336 151.505 270.604 151.174C270.872 150.827 271.053 150.433 271.147 149.992C271.195 149.803 271.218 149.629 271.218 149.472C271.218 148.699 270.588 148.313 269.327 148.313C268.649 148.313 267.972 148.392 267.294 148.55C266.616 148.707 265.97 148.904 265.355 149.141L266.159 145.358C266.853 145.106 267.664 144.909 268.594 144.767C269.54 144.609 270.47 144.531 271.384 144.531C272.897 144.531 274.032 144.862 274.788 145.524C275.56 146.17 275.946 147.06 275.946 148.195C275.946 148.573 275.899 148.991 275.805 149.448C275.663 150.157 275.45 150.772 275.166 151.292C274.898 151.796 274.544 152.261 274.102 152.687C273.661 153.112 273.117 153.569 272.471 154.058C271.888 154.483 271.313 154.909 270.745 155.335C270.194 155.76 269.729 156.178 269.351 156.588H274.433L273.724 159.992H262.566ZM281.655 160.228C279.7 160.228 278.227 159.771 277.234 158.857C276.257 157.943 275.768 156.627 275.768 154.909C275.768 154.137 275.863 153.294 276.052 152.379C276.414 150.693 276.942 149.267 277.636 148.1C278.329 146.934 279.275 146.052 280.473 145.453C281.671 144.838 283.184 144.531 285.012 144.531C287.045 144.531 288.526 145.019 289.456 145.996C290.402 146.958 290.875 148.274 290.875 149.944C290.875 150.323 290.851 150.717 290.804 151.126C290.772 151.521 290.709 151.938 290.615 152.379C290.268 154.066 289.74 155.492 289.031 156.658C288.337 157.825 287.392 158.715 286.194 159.33C285.012 159.929 283.499 160.228 281.655 160.228ZM282.459 156.446C283.483 156.446 284.271 156.107 284.823 155.429C285.374 154.736 285.792 153.719 286.076 152.379C286.154 151.97 286.217 151.599 286.265 151.268C286.312 150.937 286.336 150.63 286.336 150.346C286.336 149.669 286.178 149.164 285.863 148.833C285.548 148.487 284.996 148.313 284.208 148.313C283.184 148.313 282.396 148.652 281.844 149.33C281.292 150.007 280.875 151.024 280.591 152.379C280.402 153.231 280.307 153.948 280.307 154.531C280.307 155.161 280.465 155.642 280.78 155.973C281.095 156.288 281.655 156.446 282.459 156.446ZM289.717 159.992L290.142 157.959C290.757 157.123 291.45 156.375 292.223 155.713C292.995 155.051 293.838 154.373 294.752 153.68C295.524 153.097 296.147 152.616 296.62 152.238C297.108 151.859 297.487 151.505 297.755 151.174C298.023 150.827 298.204 150.433 298.298 149.992C298.346 149.803 298.369 149.629 298.369 149.472C298.369 148.699 297.739 148.313 296.478 148.313C295.8 148.313 295.123 148.392 294.445 148.55C293.767 148.707 293.121 148.904 292.506 149.141L293.31 145.358C294.004 145.106 294.815 144.909 295.745 144.767C296.691 144.609 297.621 144.531 298.535 144.531C300.048 144.531 301.183 144.862 301.939 145.524C302.711 146.17 303.097 147.06 303.097 148.195C303.097 148.573 303.05 148.991 302.956 149.448C302.814 150.157 302.601 150.772 302.317 151.292C302.049 151.796 301.695 152.261 301.253 152.687C300.812 153.112 300.268 153.569 299.622 154.058C299.039 154.483 298.464 154.909 297.896 155.335C297.345 155.76 296.88 156.178 296.502 156.588H301.584L300.875 159.992H289.717ZM306.394 160.228C305.953 160.228 305.441 160.197 304.858 160.134C304.29 160.086 303.731 160.008 303.179 159.897C302.643 159.771 302.178 159.614 301.784 159.424L302.541 155.855C302.872 156.028 303.274 156.178 303.747 156.304C304.219 156.43 304.7 156.524 305.189 156.588C305.677 156.651 306.095 156.682 306.442 156.682C307.356 156.682 308.034 156.548 308.475 156.28C308.916 156.012 309.192 155.587 309.302 155.004C309.35 154.814 309.373 154.641 309.373 154.483C309.373 154.121 309.239 153.861 308.971 153.703C308.703 153.53 308.246 153.443 307.6 153.443H302.966L303.416 151.41L305.212 144.767H315.071L314.054 148.171H308.309L307.695 150.346H309.42C310.949 150.346 312.084 150.677 312.825 151.339C313.565 151.985 313.936 152.868 313.936 153.987C313.936 154.176 313.92 154.365 313.889 154.554C313.873 154.744 313.849 154.948 313.818 155.169C313.629 156.178 313.242 157.06 312.659 157.817C312.076 158.573 311.272 159.164 310.248 159.59C309.223 160.015 307.939 160.228 306.394 160.228Z" fill="#E93366"/>
<path d="M259.138 151.675H242.495H225.852" stroke="url(#paint6_linear_4_142)" stroke-width="5.20099"/>
<defs>
<filter id="filter0_d_4_142" x="650.737" y="23.973" width="406.23" height="145.46" filterUnits="userSpaceOnUse" color-interpolation-filters="sRGB">
<feFlood flood-opacity="0" result="BackgroundImageFix"/>
<feColorMatrix in="SourceAlpha" type="matrix" values="0 0 0 0 0 0 0 0 0 0 0 0 0 0 0 0 0 0 127 0" result="hardAlpha"/>
<feOffset dx="-4.15813" dy="-1.48001"/>
<feGaussianBlur stdDeviation="4.05946"/>
<feComposite in2="hardAlpha" operator="out"/>
<feColorMatrix type="matrix" values="0 0 0 0 0 0 0 0 0 0 0 0 0 0 0 0 0 0 0.4 0"/>
<feBlend mode="normal" in2="BackgroundImageFix" result="effect1_dropShadow_4_142"/>
<feBlend mode="normal" in="SourceGraphic" in2="effect1_dropShadow_4_142" result="shape"/>
</filter>
<filter id="filter1_d_4_142" x="662.873" y="33.29" width="390.556" height="129.786" filterUnits="userSpaceOnUse" color-interpolation-filters="sRGB">
<feFlood flood-opacity="0" result="BackgroundImageFix"/>
<feColorMatrix in="SourceAlpha" type="matrix" values="0 0 0 0 0 0 0 0 0 0 0 0 0 0 0 0 0 0 127 0" result="hardAlpha"/>
<feOffset dx="0.140954"/>
<feGaussianBlur stdDeviation="0.140954"/>
<feComposite in2="hardAlpha" operator="out"/>
<feColorMatrix type="matrix" values="0 0 0 0 0 0 0 0 0 0 0 0 0 0 0 0 0 0 0.6 0"/>
<feBlend mode="normal" in2="BackgroundImageFix" result="effect1_dropShadow_4_142"/>
<feBlend mode="normal" in="SourceGraphic" in2="effect1_dropShadow_4_142" result="shape"/>
</filter>
<filter id="filter2_d_4_142" x="656.095" y="24.2729" width="405.095" height="137.562" filterUnits="userSpaceOnUse" color-interpolation-filters="sRGB">
<feFlood flood-opacity="0" result="BackgroundImageFix"/>
<feColorMatrix in="SourceAlpha" type="matrix" values="0 0 0 0 0 0 0 0 0 0 0 0 0 0 0 0 0 0 127 0" result="hardAlpha"/>
<feOffset dy="-0.688815"/>
<feGaussianBlur stdDeviation="4.30509"/>
<feComposite in2="hardAlpha" operator="out"/>
<feColorMatrix type="matrix" values="0 0 0 0 0 0 0 0 0 0 0 0 0 0 0 0 0 0 0.6 0"/>
<feBlend mode="normal" in2="BackgroundImageFix" result="effect1_dropShadow_4_142"/>
<feBlend mode="normal" in="SourceGraphic" in2="effect1_dropShadow_4_142" result="shape"/>
</filter>
<filter id="filter3_d_4_142" x="662.732" y="42.4525" width="388.438" height="120.905" filterUnits="userSpaceOnUse" color-interpolation-filters="sRGB">
<feFlood flood-opacity="0" result="BackgroundImageFix"/>
<feColorMatrix in="SourceAlpha" type="matrix" values="0 0 0 0 0 0 0 0 0 0 0 0 0 0 0 0 0 0 127 0" result="hardAlpha"/>
<feOffset dy="0.281907"/>
<feGaussianBlur stdDeviation="0.140954"/>
<feComposite in2="hardAlpha" operator="out"/>
<feColorMatrix type="matrix" values="0 0 0 0 0 0 0 0 0 0 0 0 0 0 0 0 0 0 0.4 0"/>
<feBlend mode="normal" in2="BackgroundImageFix" result="effect1_dropShadow_4_142"/>
<feBlend mode="normal" in="SourceGraphic" in2="effect1_dropShadow_4_142" result="shape"/>
</filter>
<filter id="filter4_d_4_142" x="657.315" y="28.3865" width="404.301" height="136.768" filterUnits="userSpaceOnUse" color-interpolation-filters="sRGB">
<feFlood flood-opacity="0" result="BackgroundImageFix"/>
<feColorMatrix in="SourceAlpha" type="matrix" values="0 0 0 0 0 0 0 0 0 0 0 0 0 0 0 0 0 0 127 0" result="hardAlpha"/>
<feOffset dy="-0.688815"/>
<feGaussianBlur stdDeviation="4.30509"/>
<feComposite in2="hardAlpha" operator="out"/>
<feColorMatrix type="matrix" values="0 0 0 0 0 0 0 0 0 0 0 0 0 0 0 0 0 0 0.6 0"/>
<feBlend mode="normal" in2="BackgroundImageFix" result="effect1_dropShadow_4_142"/>
<feBlend mode="normal" in="SourceGraphic" in2="effect1_dropShadow_4_142" result="shape"/>
</filter>
<filter id="filter5_d_4_142" x="0.111675" y="48.924" width="342.881" height="126.777" filterUnits="userSpaceOnUse" color-interpolation-filters="sRGB">
<feFlood flood-opacity="0" result="BackgroundImageFix"/>
<feColorMatrix in="SourceAlpha" type="matrix" values="0 0 0 0 0 0 0 0 0 0 0 0 0 0 0 0 0 0 127 0" result="hardAlpha"/>
<feOffset dy="-0.551086"/>
<feGaussianBlur stdDeviation="3.44428"/>
<feComposite in2="hardAlpha" operator="out"/>
<feColorMatrix type="matrix" values="0 0 0 0 0 0 0 0 0 0 0 0 0 0 0 0 0 0 0.6 0"/>
<feBlend mode="normal" in2="BackgroundImageFix" result="effect1_dropShadow_4_142"/>
<feBlend mode="normal" in="SourceGraphic" in2="effect1_dropShadow_4_142" result="shape"/>
</filter>
<linearGradient id="paint0_linear_4_142" x1="675.987" y1="142.964" x2="1049.85" y2="35.7955" gradientUnits="userSpaceOnUse">
<stop offset="0.566129" stop-color="#9130E0"/>
<stop offset="1" stop-color="#E83369"/>
</linearGradient>
<linearGradient id="paint1_linear_4_142" x1="988.097" y1="37.1758" x2="1051.28" y2="141.657" gradientUnits="userSpaceOnUse">
<stop stop-color="#E83369"/>
<stop offset="0.726129" stop-color="#9130E0"/>
</linearGradient>
<linearGradient id="paint2_linear_4_142" x1="676.811" y1="146.681" x2="1050.67" y2="39.5125" gradientUnits="userSpaceOnUse">
<stop stop-color="#9130E0"/>
<stop offset="1" stop-color="#E83369"/>
</linearGradient>
<linearGradient id="paint3_linear_4_142" x1="223.026" y1="76.6503" x2="-4.22838" y2="111.059" gradientUnits="userSpaceOnUse">
<stop stop-color="#A537FF"/>
<stop offset="1" stop-color="#F5324B"/>
</linearGradient>
<linearGradient id="paint4_linear_4_142" x1="370.004" y1="103.486" x2="192.48" y2="138.813" gradientUnits="userSpaceOnUse">
<stop stop-color="#D39EFF"/>
<stop offset="1" stop-color="#A537FF"/>
</linearGradient>
<linearGradient id="paint5_linear_4_142" x1="326.848" y1="66.3377" x2="4.30749" y2="149.502" gradientUnits="userSpaceOnUse">
<stop stop-color="#D29BFF"/>
<stop offset="1" stop-color="#A537FF"/>
</linearGradient>
<linearGradient id="paint6_linear_4_142" x1="225.852" y1="152.175" x2="259.138" y2="152.175" gradientUnits="userSpaceOnUse">
<stop stop-color="#232222" stop-opacity="0"/>
<stop offset="0.424742" stop-color="#E83369" stop-opacity="0.8"/>
<stop offset="1" stop-color="#9130E0"/>
</linearGradient>
</defs>
</svg>
